<svg width="386" height="286" viewBox="0 0 386 286" fill="none" xmlns="http://www.w3.org/2000/svg">
<mask id="mask0_103_232" style="mask-type:luminance" maskUnits="userSpaceOnUse" x="31" y="0" width="286" height="286">
<path d="M31.7554 0.65625H316.74V285.646H31.7554V0.65625Z" fill="white"/>
</mask>
<g mask="url(#mask0_103_232)">
<mask id="mask1_103_232" style="mask-type:luminance" maskUnits="userSpaceOnUse" x="31" y="0" width="286" height="286">
<path d="M174.245 0.65625C95.5522 0.65625 31.7554 64.4531 31.7554 143.151C31.7554 221.849 95.5522 285.646 174.245 285.646C252.943 285.646 316.74 221.849 316.74 143.151C316.74 64.4531 252.943 0.65625 174.245 0.65625Z" fill="white"/>
</mask>
<g mask="url(#mask1_103_232)">
<path d="M31.7554 0.65625H316.74V285.646H31.7554V0.65625Z" fill="#ED1B24"/>
</g>
</g>
<path d="M57.8648 127.229C58.2606 128.818 58.3804 130.297 58.2241 131.667C58.0731 133.037 57.7033 134.318 57.1252 135.51C56.5523 136.703 55.8179 137.813 54.9116 138.844C54.0106 139.88 52.9846 140.885 51.8387 141.865C52.495 141.943 53.2918 142.115 54.2189 142.375C55.1616 142.625 56.1147 143.068 57.0835 143.703C58.0575 144.328 58.9689 145.219 59.8127 146.385C60.6512 147.537 61.3022 149.037 61.7606 150.891C62.3752 153.349 62.4168 155.745 61.896 158.089C61.3752 160.427 60.2762 162.609 58.5939 164.625C56.9273 166.63 54.7033 168.432 51.9272 170.031C49.1616 171.609 45.8439 172.885 41.9741 173.849L17.6147 179.917L15.7137 125.104L37.271 119.734C39.4064 119.198 41.5575 118.828 43.7294 118.609C45.9116 118.38 47.9429 118.495 49.8335 118.964C51.7189 119.412 53.3752 120.292 54.8023 121.594C56.2346 122.896 57.2554 124.771 57.8648 127.229ZM38.0418 142.708C39.245 142.412 40.1773 141.802 40.8387 140.885C41.5158 139.953 41.995 138.885 42.271 137.682C42.5523 136.474 42.6773 135.229 42.6356 133.932C42.6096 132.635 42.4741 131.495 42.2294 130.505C41.8387 128.932 41.1304 127.677 40.0991 126.745C39.0887 125.807 37.7866 125.531 36.1981 125.927L33.7398 126.542L34.2606 143.651L38.0418 142.708ZM38.3856 169.255C40.0262 168.849 41.2814 168.047 42.146 166.854C43.0054 165.646 43.6199 164.276 43.9897 162.74C44.3543 161.188 44.495 159.63 44.4168 158.063C44.3491 156.479 44.172 155.109 43.8856 153.964C43.4064 152.042 42.6304 150.62 41.547 149.698C40.4845 148.776 39.0731 148.531 37.3283 148.969L34.3023 149.719L35.1043 170.073L38.3856 169.255ZM88.8127 142.412C88.8335 143.682 88.8752 144.776 88.9325 145.698C88.9898 146.604 89.1147 147.443 89.3075 148.219C89.7814 150.125 90.8283 151.49 92.4481 152.302C94.0679 153.12 96.1929 153.198 98.8231 152.542C100.729 152.068 102.214 151.349 103.281 150.391C104.36 149.427 105.156 148.302 105.667 147.011C106.182 145.719 106.5 144.313 106.615 142.781C106.724 141.234 106.75 139.63 106.688 137.958L105.318 102.776L112.766 100.922L114.011 136.302C114.12 139.068 113.938 141.729 113.469 144.281C113 146.833 112.016 149.229 110.516 151.458C109.021 153.688 106.86 155.693 104.047 157.469C101.24 159.245 97.5731 160.698 93.0366 161.828C86.7502 163.396 81.8491 163.531 78.3231 162.24C74.8075 160.932 72.521 158.146 71.4585 153.875C70.9793 151.969 70.6252 149.479 70.3804 146.406C70.1356 143.323 69.9689 139.964 69.87 136.333L69.0731 111.807L87.6877 107.172L88.8127 142.412ZM167.344 100.485C168.146 103.698 167.979 106.901 166.849 110.089C165.729 113.271 163.266 116.089 159.469 118.537L175.084 140.688L156.813 145.24L143.927 124.323L143.026 124.547L143.865 148.464L126.151 152.875L124.25 98.0626L145.807 92.6928C148.328 92.0626 150.74 91.6251 153.047 91.3751C155.36 91.1147 157.464 91.2241 159.36 91.7189C161.25 92.1981 162.891 93.1199 164.276 94.4897C165.667 95.8543 166.688 97.8543 167.344 100.485ZM146.646 118.078C148.073 117.719 149.167 116.943 149.932 115.745C150.708 114.531 151.24 113.167 151.526 111.651C151.813 110.12 151.896 108.547 151.776 106.932C151.667 105.302 151.469 103.917 151.182 102.766C150.828 101.339 150.281 100.188 149.537 99.3074C148.802 98.4168 147.615 98.172 145.974 98.5783L142.271 99.5053L142.802 119.031L146.646 118.078ZM204.172 108.188L225.406 102.896L226.563 127.86L216.896 130.266L214.031 125.412L213.709 125.495C212.693 127.49 211.36 129.302 209.709 130.932C208.057 132.563 205.672 133.766 202.552 134.542C200.151 135.141 197.745 135.323 195.334 135.089C192.917 134.839 190.636 134.068 188.485 132.776C186.339 131.485 184.396 129.573 182.656 127.042C180.922 124.516 179.563 121.281 178.584 117.344C177.526 113.089 177.172 108.886 177.526 104.729C177.891 100.568 179.016 96.7033 180.906 93.1304C182.807 89.5522 185.511 86.4272 189.026 83.7502C192.542 81.0783 196.922 79.0887 202.162 77.7814C206.209 76.771 209.844 76.3647 213.078 76.547C216.323 76.7189 219.432 77.0418 222.401 77.521L223.24 94.2085L209.391 97.6616C209.297 97.047 209.198 96.3179 209.104 95.4793C209.005 94.6252 208.87 93.745 208.698 92.8387C208.526 91.9168 208.36 91.0158 208.198 90.1356C208.042 89.2397 207.886 88.4637 207.724 87.8075C207.615 87.37 207.453 86.87 207.245 86.3127C207.047 85.7554 206.776 85.2241 206.427 84.7345C206.073 84.2397 205.636 83.8752 205.11 83.6356C204.578 83.3856 203.906 83.3595 203.094 83.5627C201.667 83.922 200.511 84.8283 199.63 86.297C198.75 87.7658 198.084 89.5887 197.636 91.771C197.198 93.9324 196.938 96.3283 196.854 98.9585C196.787 101.583 196.834 104.224 197 106.891C197.182 109.537 197.448 112.115 197.802 114.62C198.167 117.11 198.573 119.255 199.021 121.052C199.156 121.599 199.354 122.281 199.615 123.094C199.87 123.896 200.245 124.662 200.74 125.386C201.24 126.099 201.849 126.667 202.568 127.099C203.287 127.531 204.193 127.61 205.287 127.339C207.083 126.891 208.589 125.474 209.797 123.089C211 120.693 211.469 117.089 211.203 112.281L204.318 113.995L204.172 108.188ZM234.672 70.5523L269.172 61.9585L269.422 68.5054L252.693 72.6721L253.193 89.3648L267.224 85.8648L267.432 92.3387L253.422 95.8283L254.016 114.323L270.745 110.156L271.078 116.771L236.573 125.365L234.672 70.5523ZM321.948 61.969C322.75 65.1825 322.584 68.3856 321.453 71.5731C320.334 74.7554 317.875 77.5731 314.078 80.021L329.693 102.167L311.417 106.719L298.531 85.8023L297.63 86.0262L298.469 109.948L280.755 114.36L278.854 59.5471L300.412 54.1773C302.933 53.5471 305.344 53.1096 307.651 52.8596C309.964 52.594 312.068 52.7086 313.964 53.1981C315.854 53.6773 317.495 54.6044 318.88 55.969C320.271 57.3388 321.297 59.3388 321.948 61.969ZM301.25 79.5575C302.677 79.2033 303.771 78.4273 304.537 77.2294C305.313 76.0158 305.844 74.6513 306.13 73.1356C306.417 71.6044 306.5 70.0315 306.38 68.4169C306.271 66.7867 306.073 65.396 305.792 64.2502C305.432 62.8231 304.886 61.6669 304.141 60.7919C303.406 59.896 302.219 59.6565 300.578 60.0627L296.875 60.9846L297.406 80.5158L301.25 79.5575Z" stroke="black" stroke-width="6.97061"/>
<path d="M64.479 235.068L79.8905 231.229C79.9321 231.401 79.9634 231.818 79.9894 232.479C80.0102 233.141 80.0467 233.932 80.0936 234.854C80.1457 235.76 80.2394 236.75 80.3644 237.828C80.4894 238.901 80.6613 239.87 80.8748 240.74C81.0154 241.287 81.2082 241.844 81.4634 242.422C81.7238 242.995 82.0467 243.505 82.4425 243.964C82.854 244.412 83.3644 244.75 83.9738 244.984C84.5832 245.198 85.2655 245.214 86.0259 245.026C87.453 244.667 88.4425 243.797 88.9894 242.417C89.5519 241.026 89.7707 238.698 89.6509 235.427L88.2134 194.333L106.005 189.901L107.333 229.537C107.432 232.938 106.854 235.859 105.604 238.297C104.354 240.719 102.729 242.76 100.734 244.422C98.7394 246.078 96.4946 247.406 94.005 248.391C91.5363 249.391 89.1248 250.182 86.7759 250.766C84.0415 251.448 81.6404 251.854 79.5779 251.99C77.5311 252.13 75.6717 252.063 73.9998 251.781C72.3384 251.49 70.7811 251.021 69.3332 250.375C67.8957 249.714 66.4321 248.958 64.9425 248.109L64.479 235.068ZM164.87 230.526L145.693 235.302L141.286 222.563L126.135 226.339L123.557 240.818L115.594 242.802L126.823 184.719L146.255 179.875L164.87 230.526ZM127.349 219.682L139.234 216.719L131.781 194.896L127.349 219.682ZM171.755 228.813L169.854 173.995L191.911 168.5C195.297 167.656 198.344 167.261 201.052 167.307C203.771 167.354 206.161 167.964 208.224 169.136C210.286 170.307 212.057 172.078 213.542 174.443C215.021 176.797 216.224 179.833 217.151 183.552C218.146 187.542 218.609 191.578 218.552 195.662C218.5 199.729 217.677 203.563 216.078 207.162C214.479 210.75 212.005 213.927 208.661 216.703C205.312 219.479 200.854 221.563 195.292 222.948L171.755 228.813ZM192.781 217.474C194.583 217.021 195.989 215.88 197.005 214.037C198.031 212.182 198.76 209.964 199.198 207.391C199.63 204.818 199.838 202.037 199.818 199.052C199.797 196.068 199.666 193.219 199.432 190.5C199.187 187.766 198.901 185.339 198.573 183.208C198.239 181.083 197.963 179.583 197.75 178.719C197.328 177.021 196.656 175.787 195.739 175.005C194.823 174.219 193.515 174.031 191.818 174.453L187.875 175.438L189.26 218.349L192.781 217.474ZM246.234 190.49C246.25 191.755 246.292 192.854 246.349 193.776C246.406 194.682 246.531 195.521 246.724 196.297C247.198 198.203 248.245 199.563 249.864 200.38C251.484 201.193 253.609 201.276 256.239 200.62C258.146 200.146 259.635 199.427 260.698 198.469C261.776 197.505 262.573 196.38 263.088 195.089C263.604 193.797 263.917 192.386 264.031 190.854C264.14 189.313 264.166 187.703 264.104 186.037L262.739 150.854L270.182 149L271.432 184.38C271.536 187.146 271.359 189.802 270.89 192.36C270.416 194.912 269.437 197.302 267.937 199.537C266.437 201.766 264.281 203.771 261.463 205.547C258.661 207.323 254.989 208.776 250.453 209.906C244.167 211.469 239.265 211.61 235.739 210.318C232.229 209.011 229.937 206.224 228.875 201.953C228.401 200.047 228.042 197.557 227.802 194.485C227.557 191.401 227.385 188.042 227.286 184.406L226.495 159.886L245.104 155.25L246.234 190.49ZM281.667 146.141L299.458 141.709L301.026 189.292L317.677 185.146L317.995 192.375L283.568 200.953L281.667 146.141Z" stroke="black" stroke-width="6.97061"/>
<path d="M57.8665 127.229C58.252 128.812 58.3717 130.291 58.2207 131.666C58.0645 133.041 57.6999 134.328 57.1165 135.52C56.5436 136.703 55.8092 137.812 54.9082 138.854C54.0176 139.885 53.002 140.89 51.8665 141.874C52.502 141.947 53.2884 142.114 54.2207 142.374C55.1634 142.64 56.1165 143.083 57.0749 143.708C58.0436 144.333 58.9499 145.229 59.7832 146.395C60.627 147.551 61.2832 149.057 61.7415 150.916C62.3509 153.364 62.3978 155.749 61.8874 158.083C61.3717 160.416 60.2728 162.593 58.5957 164.604C56.929 166.619 54.7051 168.426 51.929 170.02C49.1634 171.604 45.8353 172.885 41.9499 173.854L17.6165 179.916L15.7207 125.104L37.2832 119.729C39.4082 119.203 41.554 118.828 43.7207 118.604C45.8978 118.385 47.9342 118.499 49.8249 118.958C51.7259 119.406 53.3874 120.281 54.804 121.583C56.2311 122.89 57.252 124.77 57.8665 127.229ZM38.0332 142.708C39.2259 142.406 40.1634 141.791 40.8457 140.874C41.5228 139.958 42.002 138.895 42.2832 137.687C42.5592 136.479 42.679 135.229 42.6374 133.937C42.6061 132.645 42.4707 131.51 42.2207 130.52C41.8145 128.926 41.1061 127.661 40.0957 126.729C39.0801 125.801 37.7832 125.531 36.1999 125.916L33.7415 126.541L34.2624 143.645L38.0332 142.708ZM38.3874 169.27C40.0124 168.869 41.252 168.072 42.1165 166.874C42.9915 165.666 43.6061 164.291 43.9707 162.749C44.3457 161.197 44.4967 159.624 44.429 158.041C44.3561 156.458 44.179 155.098 43.8874 153.958C43.4134 152.041 42.6374 150.624 41.554 149.708C40.4811 148.791 39.0749 148.551 37.3249 148.979L34.304 149.749L35.0957 170.083L38.3874 169.27Z" fill="black"/>
<path d="M88.8268 142.415C88.8268 143.697 88.8529 144.79 88.9102 145.707C88.9622 146.613 89.0872 147.447 89.2852 148.207C89.7539 150.124 90.806 151.494 92.431 152.311C94.056 153.119 96.181 153.197 98.806 152.54C100.707 152.072 102.191 151.353 103.264 150.395C104.348 149.426 105.145 148.301 105.66 147.02C106.171 145.728 106.483 144.322 106.598 142.79C106.707 141.249 106.743 139.639 106.702 137.957L105.306 102.77L112.785 100.915L114.035 136.311C114.118 139.061 113.931 141.717 113.473 144.27C113.014 146.827 112.025 149.223 110.514 151.457C108.999 153.697 106.837 155.702 104.035 157.478C101.243 159.244 97.5768 160.686 93.0352 161.811C86.7539 163.384 81.8529 163.52 78.3268 162.228C74.8112 160.926 72.5247 158.139 71.4727 153.874C71.0039 151.973 70.6497 149.488 70.4102 146.415C70.1602 143.332 69.9883 139.973 69.8893 136.332L69.0977 111.811L87.7018 107.165L88.8268 142.415Z" fill="black"/>
<path d="M167.318 100.46C168.12 103.699 167.964 106.908 166.839 110.085C165.724 113.267 163.266 116.095 159.464 118.564L175.089 140.689L156.818 145.23L143.964 124.335L143.047 124.543L143.86 148.46L126.151 152.876L124.255 98.0638L145.818 92.6888C148.328 92.0638 150.74 91.6263 153.047 91.3763C155.365 91.1159 157.469 91.2252 159.36 91.7096C161.245 92.1992 162.886 93.1263 164.276 94.5013C165.662 95.8659 166.677 97.8502 167.318 100.46ZM146.651 118.085C148.078 117.725 149.177 116.939 149.943 115.73C150.703 114.522 151.235 113.163 151.526 111.647C151.818 110.121 151.901 108.543 151.776 106.918C151.662 105.283 151.469 103.892 151.193 102.751C150.828 101.335 150.276 100.184 149.526 99.2929C148.787 98.4075 147.599 98.1679 145.964 98.5846L142.276 99.5013L142.797 119.043L146.651 118.085Z" fill="black"/>
<path d="M204.18 108.193L225.409 102.901L226.576 127.859L216.888 130.276L214.034 125.401L213.701 125.484C212.685 127.484 211.352 129.297 209.701 130.922C208.044 132.547 205.664 133.75 202.555 134.526C200.149 135.125 197.742 135.312 195.326 135.088C192.909 134.854 190.623 134.083 188.471 132.776C186.331 131.474 184.393 129.562 182.659 127.047C180.94 124.521 179.586 121.292 178.596 117.359C177.544 113.099 177.195 108.89 177.555 104.734C177.904 100.583 179.029 96.7134 180.93 93.1301C182.815 89.5467 185.518 86.4217 189.034 83.7551C192.544 81.0884 196.93 79.104 202.18 77.7967C206.221 76.7967 209.852 76.3905 213.076 76.5676C216.31 76.7342 219.419 77.0624 222.409 77.5467L223.242 94.2134L209.367 97.6717C209.284 97.0624 209.19 96.3332 209.096 95.4842C209.013 94.6405 208.878 93.7551 208.701 92.8384C208.534 91.9217 208.367 91.0207 208.201 90.1301C208.034 89.229 207.867 88.4582 207.701 87.8176C207.586 87.3749 207.435 86.8749 207.242 86.3176C207.06 85.7499 206.789 85.2238 206.43 84.7342C206.065 84.2499 205.623 83.8801 205.096 83.6301C204.581 83.3697 203.909 83.3384 203.076 83.5467C201.643 83.9113 200.492 84.828 199.617 86.2967C198.753 87.7707 198.096 89.5988 197.638 91.7759C197.19 93.9426 196.935 96.3488 196.867 98.9842C196.794 101.609 196.846 104.25 197.013 106.901C197.19 109.557 197.456 112.13 197.805 114.63C198.164 117.12 198.565 119.255 199.013 121.047C199.149 121.604 199.346 122.286 199.596 123.088C199.857 123.896 200.242 124.661 200.742 125.38C201.242 126.088 201.846 126.661 202.555 127.088C203.274 127.521 204.18 127.599 205.263 127.318C207.065 126.875 208.576 125.458 209.784 123.068C210.992 120.682 211.456 117.083 211.18 112.276L204.305 114.005L204.18 108.193Z" fill="black"/>
<path d="M234.676 70.5543L269.197 61.9501L269.426 68.5126L252.697 72.6793L253.197 89.3668L267.217 85.8668L267.447 92.3459L253.426 95.8459L254.03 114.325L270.759 110.158L271.072 116.763L236.572 125.367L234.676 70.5543Z" fill="black"/>
<path d="M321.923 61.9422C322.725 65.1818 322.569 68.3901 321.444 71.5672C320.329 74.7495 317.871 77.5776 314.069 80.0463L329.694 102.171L311.423 106.713L298.569 85.8172L297.652 86.0255L298.465 109.942L280.756 114.359L278.86 59.5463L300.423 54.1713C302.933 53.5463 305.345 53.1088 307.652 52.8588C309.97 52.5984 312.074 52.7078 313.965 53.1922C315.85 53.6818 317.491 54.6088 318.881 55.9838C320.267 57.3484 321.282 59.3328 321.923 61.9422ZM301.256 79.5672C302.683 79.2078 303.782 78.4213 304.548 77.213C305.308 76.0047 305.84 74.6453 306.131 73.1297C306.423 71.6036 306.506 70.0255 306.381 68.4005C306.267 66.7651 306.074 65.3745 305.798 64.2338C305.433 62.8172 304.881 61.6661 304.131 60.7755C303.392 59.8901 302.204 59.6505 300.569 60.0672L296.881 60.9838L297.402 80.5255L301.256 79.5672Z" fill="black"/>
<path d="M64.4937 235.062L79.9103 231.229C79.952 231.395 79.978 231.812 79.9937 232.479C80.0041 233.145 80.0405 233.937 80.0978 234.854C80.1499 235.76 80.2437 236.75 80.3687 237.833C80.4937 238.906 80.6603 239.875 80.8687 240.75C81.0041 241.307 81.202 241.869 81.452 242.437C81.7124 243.01 82.0457 243.52 82.452 243.979C82.853 244.427 83.3582 244.76 83.9728 244.979C84.5822 245.203 85.2697 245.224 86.0353 245.041C87.452 244.682 88.4364 243.807 88.9937 242.416C89.5457 241.031 89.7697 238.698 89.6603 235.416L88.2228 194.333L105.994 189.895L107.327 229.52C107.421 232.937 106.837 235.864 105.577 238.291C104.327 240.724 102.702 242.765 100.702 244.416C98.7124 246.073 96.4832 247.395 94.0145 248.395C91.5405 249.385 89.1239 250.177 86.7645 250.77C84.0405 251.437 81.6499 251.843 79.5978 251.979C77.5405 252.119 75.6707 252.052 73.9937 251.77C72.327 251.479 70.7697 251.015 69.327 250.375C67.8999 249.724 66.4416 248.968 64.952 248.104L64.4937 235.062Z" fill="black"/>
<path d="M164.852 230.527L145.685 235.298L141.289 222.548L126.122 226.319L123.56 240.819L115.602 242.798L126.831 184.715L146.268 179.861L164.852 230.527ZM127.331 219.673L139.227 216.715L131.789 194.882L127.331 219.673Z" fill="black"/>
<path d="M171.756 228.81L169.86 173.998L191.902 168.498C195.303 167.654 198.36 167.258 201.068 167.31C203.777 167.352 206.157 167.966 208.214 169.144C210.266 170.31 212.037 172.076 213.527 174.435C215.027 176.8 216.24 179.841 217.172 183.56C218.157 187.55 218.615 191.576 218.547 195.644C218.49 199.716 217.657 203.55 216.047 207.144C214.448 210.727 211.974 213.914 208.631 216.706C205.297 219.487 200.844 221.571 195.277 222.956L171.756 228.81ZM192.777 217.456C194.579 217.013 195.99 215.867 197.006 214.019C198.032 212.175 198.761 209.966 199.193 207.394C199.62 204.81 199.823 202.034 199.797 199.06C199.782 196.076 199.657 193.222 199.422 190.498C199.183 187.779 198.902 185.352 198.568 183.227C198.235 181.091 197.964 179.581 197.756 178.706C197.339 177.029 196.662 175.789 195.735 174.998C194.818 174.206 193.511 174.029 191.818 174.456L187.881 175.435L189.256 218.331L192.777 217.456Z" fill="black"/>
<path d="M246.245 190.493C246.245 191.774 246.271 192.868 246.328 193.784C246.38 194.691 246.505 195.524 246.703 196.284C247.172 198.201 248.224 199.571 249.849 200.388C251.474 201.196 253.599 201.274 256.224 200.618C258.125 200.149 259.609 199.43 260.682 198.472C261.766 197.503 262.563 196.378 263.078 195.097C263.589 193.805 263.901 192.399 264.016 190.868C264.125 189.326 264.161 187.717 264.12 186.034L262.724 150.847L270.203 148.993L271.453 184.388C271.536 187.138 271.349 189.795 270.891 192.347C270.432 194.904 269.443 197.3 267.932 199.534C266.417 201.774 264.255 203.779 261.453 205.555C258.661 207.321 254.995 208.763 250.453 209.888C244.172 211.461 239.271 211.597 235.745 210.305C232.229 209.003 229.943 206.217 228.891 201.951C228.422 200.05 228.068 197.566 227.828 194.493C227.578 191.409 227.406 188.05 227.307 184.409L226.516 159.888L245.12 155.243L246.245 190.493Z" fill="black"/>
<path d="M281.673 146.141L299.465 141.703L301.048 189.287L317.673 185.141L317.986 192.37L283.569 200.953L281.673 146.141Z" fill="black"/>
<path d="M53.6511 127.229C54.0469 128.818 54.1667 130.297 54.0156 131.667C53.8594 133.037 53.4896 134.318 52.9115 135.511C52.3438 136.703 51.6042 137.813 50.7031 138.844C49.7969 139.88 48.7708 140.886 47.625 141.865C48.2865 141.943 49.0781 142.115 50.0104 142.375C50.9479 142.625 51.901 143.068 52.8698 143.703C53.8438 144.328 54.7552 145.219 55.599 146.386C56.4375 147.537 57.0885 149.037 57.5521 150.891C58.1615 153.349 58.2083 155.745 57.6823 158.089C57.1614 160.427 56.0625 162.609 54.3802 164.625C52.7135 166.63 50.4896 168.432 47.7135 170.031C44.9479 171.609 41.6302 172.885 37.7604 173.849L13.4062 179.917L11.5052 125.104L33.0573 119.734C35.1927 119.198 37.3438 118.828 39.5156 118.609C41.6979 118.38 43.7344 118.495 45.6198 118.964C47.5052 119.412 49.1615 120.292 50.5886 121.594C52.0208 122.896 53.0417 124.771 53.6511 127.229ZM33.8281 142.708C35.0313 142.412 35.9636 141.802 36.625 140.886C37.3021 139.953 37.7813 138.886 38.0625 137.682C38.3438 136.474 38.4635 135.229 38.4219 133.932C38.401 132.636 38.2604 131.495 38.0156 130.505C37.625 128.932 36.9167 127.677 35.8906 126.745C34.875 125.807 33.5729 125.531 31.9896 125.927L29.5261 126.542L30.0469 143.651L33.8281 142.708ZM34.1719 169.255C35.8125 168.849 37.0677 168.047 37.9323 166.854C38.7917 165.646 39.4062 164.276 39.776 162.74C40.1406 161.188 40.2865 159.63 40.2031 158.063C40.1354 156.479 39.9583 155.109 39.6719 153.964C39.1927 152.042 38.4167 150.62 37.3333 149.698C36.2708 148.776 34.8646 148.531 33.1146 148.969L30.0938 149.719L30.8906 170.073L34.1719 169.255ZM84.6042 142.412C84.6198 143.682 84.6614 144.776 84.7187 145.698C84.776 146.604 84.901 147.443 85.0937 148.219C85.5677 150.125 86.6146 151.49 88.2344 152.302C89.8542 153.12 91.9792 153.198 94.6094 152.542C96.5156 152.068 98.0052 151.349 99.0677 150.391C100.146 149.427 100.943 148.302 101.458 147.011C101.969 145.719 102.286 144.313 102.401 142.781C102.51 141.234 102.536 139.63 102.474 137.958L101.109 102.776L108.552 100.922L109.797 136.302C109.906 139.068 109.729 141.729 109.255 144.281C108.786 146.833 107.802 149.229 106.307 151.458C104.807 153.688 102.646 155.693 99.8333 157.469C97.0312 159.245 93.3594 160.698 88.8229 161.828C82.5365 163.396 77.6354 163.531 74.1094 162.24C70.599 160.932 68.3073 158.146 67.2448 153.875C66.7708 151.969 66.4115 149.479 66.1719 146.406C65.9271 143.323 65.7552 139.964 65.6562 136.333L64.8594 111.807L83.474 107.172L84.6042 142.412ZM163.13 100.485C163.932 103.698 163.766 106.901 162.635 110.089C161.516 113.271 159.057 116.089 155.26 118.537L170.875 140.688L152.599 145.24L139.714 124.323L138.818 124.547L139.651 148.464L121.937 152.875L120.036 98.0626L141.594 92.6929C144.115 92.0627 146.526 91.6251 148.833 91.3751C151.146 91.1147 153.25 91.2241 155.146 91.7189C157.036 92.1981 158.677 93.1199 160.068 94.4897C161.453 95.8543 162.479 97.8543 163.13 100.485ZM142.432 118.078C143.859 117.719 144.958 116.943 145.719 115.745C146.495 114.531 147.026 113.167 147.318 111.651C147.599 110.12 147.682 108.547 147.563 106.932C147.453 105.302 147.26 103.917 146.974 102.766C146.615 101.339 146.068 100.188 145.323 99.3074C144.594 98.4168 143.406 98.172 141.76 98.5783L138.063 99.5054L138.589 119.031L142.432 118.078ZM199.958 108.188L221.193 102.896L222.354 127.86L212.687 130.266L209.818 125.412L209.5 125.495C208.479 127.49 207.146 129.302 205.495 130.932C203.849 132.563 201.464 133.766 198.339 134.542C195.937 135.141 193.531 135.323 191.12 135.089C188.708 134.839 186.422 134.068 184.276 132.776C182.125 131.485 180.182 129.573 178.448 127.042C176.708 124.516 175.354 121.281 174.37 117.344C173.313 113.089 172.958 108.886 173.312 104.729C173.677 100.568 174.807 96.7033 176.693 93.1304C178.594 89.5522 181.302 86.4273 184.813 83.7502C188.328 81.0783 192.708 79.0887 197.953 77.7814C201.995 76.771 205.63 76.3648 208.865 76.5471C212.109 76.7189 215.219 77.0419 218.187 77.521L219.026 94.2085L205.177 97.6616C205.083 97.0471 204.984 96.3179 204.891 95.4793C204.792 94.6252 204.656 93.745 204.484 92.8387C204.313 91.9168 204.146 91.0158 203.984 90.1356C203.833 89.2398 203.672 88.4637 203.51 87.8075C203.401 87.37 203.24 86.87 203.031 86.3127C202.833 85.7554 202.563 85.2241 202.214 84.7346C201.865 84.2398 201.422 83.8752 200.896 83.6356C200.37 83.3856 199.693 83.3595 198.88 83.5627C197.453 83.922 196.297 84.8283 195.417 86.297C194.536 87.7658 193.87 89.5887 193.422 91.771C192.984 93.9325 192.724 96.3283 192.641 98.9585C192.573 101.583 192.62 104.224 192.792 106.891C192.969 109.537 193.234 112.115 193.589 114.62C193.953 117.11 194.359 119.255 194.807 121.052C194.943 121.599 195.141 122.281 195.401 123.094C195.656 123.896 196.031 124.662 196.526 125.386C197.031 126.099 197.641 126.667 198.354 127.099C199.073 127.531 199.979 127.61 201.073 127.339C202.875 126.891 204.375 125.474 205.583 123.089C206.786 120.693 207.255 117.089 206.99 112.281L200.109 113.995L199.958 108.188ZM230.458 70.5523L264.964 61.9585L265.214 68.5054L248.479 72.6721L248.979 89.3648L263.01 85.8648L263.219 92.3387L249.214 95.8283L249.802 114.323L266.531 110.156L266.865 116.771L232.359 125.365L230.458 70.5523ZM317.734 61.969C318.536 65.1825 318.37 68.3857 317.24 71.5732C316.12 74.7554 313.661 77.5731 309.865 80.0211L325.479 102.167L307.203 106.719L294.323 85.8023L293.422 86.0263L294.255 109.948L276.542 114.36L274.641 59.5471L296.198 54.1773C298.719 53.5471 301.13 53.1096 303.437 52.8596C305.75 52.594 307.854 52.7086 309.75 53.1982C311.641 53.6773 313.281 54.6044 314.672 55.969C316.057 57.3388 317.083 59.3388 317.734 61.969ZM297.036 79.5575C298.464 79.2033 299.562 78.4273 300.328 77.2294C301.099 76.0159 301.63 74.6513 301.922 73.1356C302.203 71.6044 302.286 70.0315 302.167 68.4169C302.062 66.7867 301.865 65.3961 301.578 64.2502C301.219 62.8231 300.672 61.6669 299.927 60.7919C299.198 59.8961 298.01 59.6565 296.37 60.0627L292.667 60.9846L293.193 80.5158L297.036 79.5575Z" stroke="black" stroke-width="6.97061"/>
<path d="M60.2656 235.068L75.6771 231.229C75.7187 231.401 75.7552 231.818 75.776 232.479C75.7969 233.141 75.8333 233.932 75.8802 234.854C75.9375 235.76 76.026 236.75 76.151 237.828C76.276 238.901 76.4479 239.87 76.6666 240.74C76.8021 241.287 76.9948 241.844 77.2552 242.422C77.5104 242.995 77.8385 243.505 78.2344 243.964C78.6406 244.412 79.151 244.75 79.7604 244.984C80.3698 245.198 81.0521 245.214 81.8125 245.026C83.2396 244.667 84.2292 243.797 84.776 242.417C85.3385 241.026 85.5573 238.698 85.4375 235.427L84 194.333L101.792 189.901L103.12 229.537C103.219 232.938 102.646 235.859 101.396 238.297C100.141 240.719 98.5156 242.76 96.5208 244.422C94.526 246.078 92.2812 247.406 89.7969 248.391C87.3229 249.391 84.9114 250.182 82.5625 250.766C79.8281 251.448 77.4271 251.854 75.3646 251.99C73.3177 252.13 71.4583 252.063 69.7864 251.781C68.125 251.49 66.5729 251.021 65.1198 250.375C63.6823 249.714 62.2187 248.958 60.7291 248.109L60.2656 235.068ZM160.656 230.526L141.479 235.302L137.073 222.563L121.922 226.339L119.344 240.818L111.38 242.802L122.609 184.719L142.042 179.875L160.656 230.526ZM123.135 219.682L135.026 216.719L127.568 194.896L123.135 219.682ZM167.542 228.813L165.641 173.995L187.698 168.5C191.089 167.656 194.135 167.261 196.839 167.307C199.557 167.354 201.948 167.964 204.01 169.136C206.073 170.307 207.844 172.078 209.328 174.443C210.807 176.797 212.01 179.833 212.937 183.552C213.932 187.542 214.401 191.578 214.339 195.662C214.286 199.729 213.464 203.563 211.87 207.162C210.266 210.75 207.792 213.927 204.448 216.703C201.099 219.479 196.646 221.563 191.078 222.948L167.542 228.813ZM188.568 217.474C190.37 217.021 191.776 215.88 192.792 214.037C193.818 212.182 194.547 209.964 194.984 207.391C195.422 204.818 195.625 202.037 195.604 199.052C195.583 196.068 195.458 193.219 195.219 190.5C194.979 187.766 194.693 185.339 194.359 183.208C194.026 181.083 193.755 179.583 193.536 178.719C193.115 177.021 192.448 175.787 191.531 175.005C190.609 174.219 189.302 174.031 187.609 174.453L183.667 175.438L185.047 218.349L188.568 217.474ZM242.021 190.49C242.036 191.755 242.078 192.854 242.135 193.776C242.193 194.682 242.318 195.521 242.51 196.297C242.984 198.203 244.031 199.563 245.651 200.38C247.276 201.193 249.396 201.276 252.026 200.62C253.932 200.146 255.422 199.427 256.484 198.469C257.562 197.505 258.359 196.38 258.875 195.089C259.391 193.797 259.703 192.386 259.818 190.854C259.932 189.313 259.953 187.703 259.891 186.037L258.526 150.854L265.969 149L267.219 184.38C267.323 187.146 267.146 189.802 266.677 192.36C266.208 194.912 265.224 197.302 263.724 199.537C262.224 201.766 260.068 203.771 257.25 205.547C254.448 207.323 250.776 208.776 246.24 209.906C239.958 211.469 235.052 211.61 231.526 210.318C228.016 209.011 225.724 206.224 224.661 201.953C224.187 200.047 223.828 197.557 223.589 194.485C223.344 191.401 223.172 188.042 223.073 184.406L222.281 159.886L240.891 155.25L242.021 190.49ZM277.453 146.141L295.25 141.709L296.812 189.292L313.469 185.146L313.781 192.375L279.359 200.953L277.453 146.141Z" stroke="black" stroke-width="6.97061"/>
<path d="M53.6541 127.229C54.0396 128.812 54.1593 130.291 54.0083 131.666C53.8521 133.041 53.4875 134.328 52.9041 135.52C52.3312 136.703 51.5968 137.812 50.6958 138.854C49.8052 139.885 48.7896 140.89 47.6541 141.874C48.2896 141.947 49.076 142.114 50.0083 142.374C50.951 142.64 51.9041 143.083 52.8625 143.708C53.8312 144.333 54.7375 145.229 55.5708 146.395C56.4146 147.551 57.0708 149.057 57.5291 150.916C58.1385 153.364 58.1854 155.749 57.675 158.083C57.1593 160.416 56.0604 162.593 54.3833 164.604C52.7166 166.619 50.4927 168.426 47.7166 170.02C44.951 171.604 41.6229 172.885 37.7375 173.854L13.4041 179.916L11.5083 125.104L33.0708 119.729C35.1958 119.203 37.3416 118.828 39.5083 118.604C41.6854 118.385 43.7218 118.499 45.6125 118.958C47.5135 119.406 49.175 120.281 50.5916 121.583C52.0187 122.89 53.0396 124.77 53.6541 127.229ZM33.8208 142.708C35.0135 142.406 35.951 141.791 36.6333 140.874C37.3104 139.958 37.7896 138.895 38.0708 137.687C38.3468 136.479 38.4666 135.229 38.425 133.937C38.3937 132.645 38.2583 131.51 38.0083 130.52C37.6021 128.926 36.8937 127.661 35.8833 126.729C34.8677 125.801 33.5708 125.531 31.9875 125.916L29.5291 126.541L30.05 143.645L33.8208 142.708ZM34.175 169.27C35.8 168.869 37.0396 168.072 37.9041 166.874C38.7791 165.666 39.3937 164.291 39.7583 162.749C40.1333 161.197 40.2843 159.624 40.2166 158.041C40.1437 156.458 39.9666 155.098 39.675 153.958C39.201 152.041 38.425 150.624 37.3416 149.708C36.2687 148.791 34.8625 148.551 33.1125 148.979L30.0916 149.749L30.8833 170.083L34.175 169.27Z" fill="#F7EA00"/>
<path d="M84.6144 142.415C84.6144 143.697 84.6405 144.79 84.6978 145.707C84.7498 146.613 84.8748 147.447 85.0728 148.207C85.5415 150.124 86.5936 151.494 88.2186 152.311C89.8436 153.119 91.9686 153.197 94.5936 152.54C96.4946 152.072 97.979 151.353 99.0519 150.395C100.135 149.426 100.932 148.301 101.448 147.02C101.958 145.728 102.271 144.322 102.385 142.79C102.495 141.249 102.531 139.639 102.489 137.957L101.094 102.77L108.573 100.915L109.823 136.311C109.906 139.061 109.719 141.717 109.26 144.27C108.802 146.827 107.812 149.223 106.302 151.457C104.786 153.697 102.625 155.702 99.8228 157.478C97.0311 159.244 93.3644 160.686 88.8228 161.811C82.5415 163.384 77.6405 163.52 74.1144 162.228C70.5988 160.926 68.3123 158.139 67.2603 153.874C66.7915 151.973 66.4373 149.488 66.1978 146.415C65.9478 143.332 65.7759 139.973 65.6769 136.332L64.8853 111.811L83.4894 107.165L84.6144 142.415Z" fill="#F7EA00"/>
<path d="M163.105 100.46C163.908 103.699 163.751 106.908 162.626 110.085C161.512 113.267 159.053 116.095 155.251 118.564L170.876 140.689L152.605 145.23L139.751 124.335L138.835 124.543L139.647 148.46L121.939 152.876L120.043 98.0638L141.605 92.6888C144.116 92.0638 146.527 91.6263 148.835 91.3763C151.152 91.1159 153.257 91.2252 155.147 91.7096C157.033 92.1992 158.673 93.1263 160.064 94.5013C161.449 95.8659 162.465 97.8502 163.105 100.46ZM142.439 118.085C143.866 117.725 144.965 116.939 145.73 115.73C146.491 114.522 147.022 113.163 147.314 111.647C147.605 110.121 147.689 108.543 147.564 106.918C147.449 105.283 147.257 103.892 146.98 102.751C146.616 101.335 146.064 100.184 145.314 99.2929C144.574 98.4075 143.387 98.1679 141.751 98.5846L138.064 99.5013L138.585 119.043L142.439 118.085Z" fill="#F7EA00"/>
<path d="M199.967 108.193L221.197 102.901L222.363 127.859L212.676 130.276L209.822 125.401L209.488 125.484C208.473 127.484 207.139 129.297 205.488 130.922C203.832 132.547 201.452 133.75 198.342 134.526C195.936 135.125 193.53 135.312 191.113 135.088C188.697 134.854 186.41 134.083 184.259 132.776C182.118 131.474 180.181 129.562 178.447 127.047C176.728 124.521 175.374 121.292 174.384 117.359C173.332 113.099 172.983 108.89 173.342 104.734C173.691 100.583 174.816 96.7134 176.717 93.1301C178.603 89.5467 181.306 86.4217 184.822 83.7551C188.332 81.0884 192.717 79.104 197.967 77.7967C202.009 76.7967 205.639 76.3905 208.863 76.5676C212.098 76.7342 215.207 77.0624 218.197 77.5467L219.03 94.2134L205.155 97.6717C205.072 97.0624 204.978 96.3332 204.884 95.4842C204.801 94.6405 204.665 93.7551 204.488 92.8384C204.322 91.9217 204.155 91.0207 203.988 90.1301C203.822 89.229 203.655 88.4582 203.488 87.8176C203.374 87.3749 203.223 86.8749 203.03 86.3176C202.848 85.7499 202.577 85.2238 202.217 84.7342C201.853 84.2499 201.41 83.8801 200.884 83.6301C200.368 83.3697 199.697 83.3384 198.863 83.5467C197.431 83.9113 196.28 84.828 195.405 86.2967C194.54 87.7707 193.884 89.5988 193.426 91.7759C192.978 93.9426 192.723 96.3488 192.655 98.9842C192.582 101.609 192.634 104.25 192.801 106.901C192.978 109.557 193.243 112.13 193.592 114.63C193.952 117.12 194.353 119.255 194.801 121.047C194.936 121.604 195.134 122.286 195.384 123.088C195.644 123.896 196.03 124.661 196.53 125.38C197.03 126.088 197.634 126.661 198.342 127.088C199.061 127.521 199.967 127.599 201.051 127.318C202.853 126.875 204.363 125.458 205.572 123.068C206.78 120.682 207.243 117.083 206.967 112.276L200.092 114.005L199.967 108.193Z" fill="#F7EA00"/>
<path d="M230.463 70.5543L264.984 61.9501L265.213 68.5126L248.484 72.6793L248.984 89.3668L263.005 85.8668L263.234 92.3459L249.213 95.8459L249.817 114.325L266.546 110.158L266.859 116.763L232.359 125.367L230.463 70.5543Z" fill="#F7EA00"/>
<path d="M317.71 61.9422C318.512 65.1818 318.356 68.3901 317.231 71.5672C316.116 74.7495 313.658 77.5776 309.856 80.0463L325.481 102.171L307.21 106.713L294.356 85.8172L293.439 86.0255L294.252 109.942L276.543 114.359L274.647 59.5463L296.21 54.1713C298.72 53.5463 301.132 53.1088 303.439 52.8588C305.757 52.5984 307.861 52.7078 309.752 53.1922C311.637 53.6818 313.278 54.6088 314.668 55.9838C316.054 57.3484 317.069 59.3328 317.71 61.9422ZM297.043 79.5672C298.47 79.2078 299.569 78.4213 300.335 77.213C301.095 76.0047 301.627 74.6453 301.918 73.1297C302.21 71.6036 302.293 70.0255 302.168 68.4005C302.054 66.7651 301.861 65.3745 301.585 64.2338C301.22 62.8172 300.668 61.6661 299.918 60.7755C299.179 59.8901 297.991 59.6505 296.356 60.0672L292.668 60.9838L293.189 80.5255L297.043 79.5672Z" fill="#F7EA00"/>
<path d="M60.2812 235.062L75.6979 231.229C75.7396 231.395 75.7656 231.812 75.7813 232.479C75.7917 233.145 75.8281 233.937 75.8854 234.854C75.9375 235.76 76.0313 236.75 76.1563 237.833C76.2813 238.906 76.4479 239.875 76.6563 240.75C76.7917 241.307 76.9896 241.869 77.2396 242.437C77.5 243.01 77.8333 243.52 78.2396 243.979C78.6406 244.427 79.1458 244.76 79.7604 244.979C80.3698 245.203 81.0573 245.224 81.8229 245.041C83.2396 244.682 84.224 243.807 84.7813 242.416C85.3333 241.031 85.5573 238.698 85.4479 235.416L84.0104 194.333L101.781 189.895L103.115 229.52C103.208 232.937 102.625 235.864 101.365 238.291C100.115 240.724 98.4896 242.765 96.4896 244.416C94.5 246.073 92.2708 247.395 89.8021 248.395C87.3281 249.385 84.9115 250.177 82.5521 250.77C79.8281 251.437 77.4375 251.843 75.3854 251.979C73.3281 252.119 71.4583 252.052 69.7813 251.77C68.1146 251.479 66.5573 251.015 65.1146 250.375C63.6875 249.724 62.2292 248.968 60.7396 248.104L60.2812 235.062Z" fill="#F7EA00"/>
<path d="M160.639 230.527L141.472 235.298L137.077 222.548L121.91 226.319L119.347 240.819L111.389 242.798L122.618 184.715L142.056 179.861L160.639 230.527ZM123.118 219.673L135.014 216.715L127.577 194.882L123.118 219.673Z" fill="#F7EA00"/>
<path d="M167.543 228.81L165.647 173.998L187.689 168.498C191.09 167.654 194.147 167.258 196.856 167.31C199.564 167.352 201.944 167.966 204.002 169.144C206.054 170.31 207.825 172.076 209.314 174.435C210.814 176.8 212.028 179.841 212.96 183.56C213.944 187.55 214.403 191.576 214.335 195.644C214.278 199.716 213.444 203.55 211.835 207.144C210.236 210.727 207.762 213.914 204.418 216.706C201.085 219.487 196.632 221.571 191.064 222.956L167.543 228.81ZM188.564 217.456C190.366 217.013 191.778 215.867 192.793 214.019C193.819 212.175 194.549 209.966 194.981 207.394C195.408 204.81 195.611 202.034 195.585 199.06C195.569 196.076 195.444 193.222 195.21 190.498C194.97 187.779 194.689 185.352 194.356 183.227C194.022 181.091 193.752 179.581 193.543 178.706C193.127 177.029 192.45 175.789 191.522 174.998C190.606 174.206 189.299 174.029 187.606 174.456L183.668 175.435L185.043 218.331L188.564 217.456Z" fill="#F7EA00"/>
<path d="M242.032 190.493C242.032 191.774 242.058 192.868 242.116 193.784C242.168 194.691 242.293 195.524 242.491 196.284C242.959 198.201 244.012 199.571 245.637 200.388C247.262 201.196 249.387 201.274 252.012 200.618C253.913 200.149 255.397 199.43 256.47 198.472C257.553 197.503 258.35 196.378 258.866 195.097C259.376 193.805 259.689 192.399 259.803 190.868C259.913 189.326 259.949 187.717 259.907 186.034L258.512 150.847L265.991 148.993L267.241 184.388C267.324 187.138 267.137 189.795 266.678 192.347C266.22 194.904 265.23 197.3 263.72 199.534C262.204 201.774 260.043 203.779 257.241 205.555C254.449 207.321 250.782 208.763 246.241 209.888C239.959 211.461 235.058 211.597 231.532 210.305C228.017 209.003 225.73 206.217 224.678 201.951C224.209 200.05 223.855 197.566 223.616 194.493C223.366 191.409 223.194 188.05 223.095 184.409L222.303 159.888L240.907 155.243L242.032 190.493Z" fill="#F7EA00"/>
<path d="M277.461 146.141L295.253 141.703L296.836 189.287L313.461 185.141L313.773 192.37L279.357 200.953L277.461 146.141Z" fill="#F7EA00"/>
<mask id="mask2_103_232" style="mask-type:luminance" maskUnits="userSpaceOnUse" x="326" y="82" width="60" height="92">
<path d="M326 82.1823H385.578V173.937H326V82.1823Z" fill="white"/>
</mask>
<g mask="url(#mask2_103_232)">
<path fill-rule="evenodd" clip-rule="evenodd" d="M366.615 109.698H381.734C382.984 109.698 384.052 110.365 384.609 111.49C385.167 112.62 385.057 113.88 384.318 114.891L344.359 169.312C344.042 169.745 343.688 170.047 343.208 170.286L336.844 173.51C335.901 173.984 334.886 173.979 333.943 173.5L331.386 172.182C329.974 171.453 329.297 169.839 329.771 168.307L339.193 137.917H329.589C328.573 137.917 327.708 137.495 327.073 136.693C326.443 135.901 326.224 134.948 326.443 133.953L336.537 88.0052C336.755 87.0104 337.339 86.2552 338.234 85.7969L344.609 82.5729C345.089 82.3333 345.547 82.2239 346.073 82.2239L377.969 82.5C379.177 82.5156 380.198 83.1406 380.776 84.2083C381.344 85.2708 381.297 86.4896 380.656 87.5104L366.615 109.698Z" fill="white"/>
</g>
<path fill-rule="evenodd" clip-rule="evenodd" d="M347.224 85.4948L377.943 85.7552L360.739 112.953H381.734L341.776 167.375L335.406 170.594L332.838 169.281L343.573 134.661H329.588L339.677 88.7083L346.047 85.4792L347.224 85.4948Z" fill="black"/>
<path fill-rule="evenodd" clip-rule="evenodd" d="M375.297 87.2083L347.214 86.9635L337.771 129.953H351.932L340.604 166.495L378.833 114.432H358.068L375.297 87.2083Z" fill="#F4BC21"/>
</svg>
